<?xml version="1.0" encoding="utf-8"?>
<!-- Generator: Adobe Illustrator 25.2.3, SVG Export Plug-In . SVG Version: 6.00 Build 0)  -->
<svg version="1.1" xmlns="http://www.w3.org/2000/svg" xmlns:xlink="http://www.w3.org/1999/xlink" x="0px" y="0px" width="976.3px"
	 height="228.8px" viewBox="0 0 976.3 228.8" style="enable-background:new 0 0 976.3 228.8;" xml:space="preserve">
<style type="text/css">
	.st0{fill:#474d54;}
	.st1{fill:#474d54;}
	.st2{fill:#474d54;}
	.st3{fill:#474d54;}
</style>
<g id="Layer_1">
</g>
<g id="Layer_2">
	<g>
		<path class="st0" d="M149.9,178H27.4c-3,0-5.5-2.5-5.5-5.5V21.9c0-3,2.5-5.5,5.5-5.5h209.2c3,0,5.5,2.5,5.5,5.5v14.3h13V21.9
			c0-10.2-8.3-18.5-18.5-18.5H27.4c-10.2,0-18.5,8.3-18.5,18.5v150.6c0,10.2,8.3,18.5,18.5,18.5h122.5V178z"/>
		<path class="st1" d="M285.3,49h-72c-10.2,0-18.5,8.3-18.5,18.5v36.9h13V67.5c0-3,2.5-5.5,5.5-5.5h72c3,0,5.5,2.5,5.5,5.5v105
			c0,3-2.5,5.5-5.5,5.5h-34.9v13h34.9c10.2,0,18.5-8.3,18.5-18.5v-105C303.8,57.3,295.5,49,285.3,49z"/>
		<g>
			<g>
				<path class="st2" d="M219.2,225.4h-38.3c-10.2,0-18.5-8.3-18.5-18.5v-72.7c0-10.2,8.3-18.5,18.5-18.5h38.3
					c10.2,0,18.5,8.3,18.5,18.5v72.7C237.7,217.1,229.4,225.4,219.2,225.4z M180.9,128.7c-3,0-5.5,2.5-5.5,5.5v72.7
					c0,3,2.5,5.5,5.5,5.5h38.3c3,0,5.5-2.5,5.5-5.5v-72.7c0-3-2.5-5.5-5.5-5.5H180.9z"/>
			</g>
		</g>
		<g>
			<path class="st0" d="M365,47h45.4c37.7,0,57.1,22.3,57.1,55.9c0,35.7-21.7,55.7-57.1,55.7H365V47z M409.1,137.3
				c22.6,0,32.6-13.7,32.6-34.3c0-23.7-13.1-34.3-32.6-34.3h-19.6v68.7H409.1z"/>
			<path class="st0" d="M564.5,133.1c-3.8,16.9-19.7,27.1-40.5,27.1c-26.6,0-43.9-16.8-43.9-42.2c0-25.3,17.2-42.2,42.7-42.2
				c24.5,0,41,15.4,41,38c0,3.2-0.5,5.7-0.9,8.3h-59.6v0.6c0,12.2,8.3,19.1,20.6,19.1c8.6,0,15.1-3.4,17.7-8.8H564.5z M503.6,107.4
				H540c-0.3-8-7.7-13.7-17.7-13.7C512.7,93.7,505.5,99.1,503.6,107.4z"/>
			<path class="st0" d="M655,77.4l-30.8,81.3h-26.5l-30.8-81.3h24.9l19.2,60.7l19.2-60.7H655z"/>
			<path class="st0" d="M662.2,52.4c0-7.1,5.2-12.9,15.4-12.9c10,0,15.2,5.9,15.2,12.9c0,7.5-5.2,13.4-15.2,13.4
				C667.5,65.8,662.2,60,662.2,52.4z M665.9,77.4h23.3v81.3h-23.3V77.4z"/>
			<path class="st0" d="M748,75.8c22.6,0,39.3,12.5,41.7,31.3h-23.6c-2.2-7.2-9.4-11.5-18.2-11.5c-12.5,0-19.9,9.1-19.9,22.5
				c0,14,7.9,22.5,20,22.5c9.2,0,15.9-4.5,18-11.5h23.6c-2.5,18.9-18.9,31.3-41.3,31.3c-26,0-43.9-16.9-43.9-42.2
				C704.6,92.6,722.5,75.8,748,75.8z"/>
			<path class="st0" d="M885.2,133.1c-3.8,16.9-19.7,27.1-40.5,27.1c-26.6,0-43.9-16.8-43.9-42.2c0-25.3,17.2-42.2,42.7-42.2
				c24.5,0,41,15.4,41,38c0,3.2-0.5,5.7-0.9,8.3h-59.6v0.6c0,12.2,8.3,19.1,20.6,19.1c8.6,0,15.1-3.4,17.7-8.8H885.2z M824.4,107.4
				h36.3c-0.3-8-7.7-13.7-17.7-13.7C833.5,93.7,826.2,99.1,824.4,107.4z"/>
			<path class="st0" d="M896.6,133.3h21.7c0.5,6.5,6,10.2,14.2,10.2c7.7,0,11.9-3.2,11.9-8.2s-4.2-6.8-8.2-7.4l-14-2.3
				c-15.2-2.6-24.9-10-24.9-23.4c0-15.9,13.7-26.3,33.9-26.3s34,10.3,34.3,25.9h-20.6c-0.5-5.9-5.7-9.4-13.4-9.4
				c-6.8,0-11.2,2.9-11.2,7.7c0,5.2,5.4,6.5,9.1,7.1l15.1,2.3c16.3,2.8,23.1,12.2,23.1,23.6c0,16.5-13.9,27.3-35,27.3
				C911.1,160.2,897.1,149.4,896.6,133.3z"/>
		</g>
	</g>
</g>
</svg>
